# MagicaVoxel @ Ephtracy

# group
o 

# material
mtllib untitled.mtl
usemtl palette

# normals
vn -1 0 0
vn 1 0 0
vn 0 0 1
vn 0 0 -1
vn 0 -1 0
vn 0 1 0

# texcoords
vt 0.0644531 0.5
vt 0.291016 0.5
vt 0.427734 0.5
vt 0.482422 0.5
vt 0.583984 0.5
vt 0.755859 0.5
vt 0.916016 0.5
vt 0.931641 0.5
vt 0.958984 0.5

# verts
v -0.6 1 0.6
v -0.6 1 0.2
v -0.6 1 0.1
v -0.6 1 5.96046e-08
v -0.6 1 -0.6
v -0.6 1.1 0.6
v -0.6 1.1 0.5
v -0.6 1.1 0.2
v -0.6 1.1 0.1
v -0.6 1.1 5.96046e-08
v -0.6 1.1 -0.6
v -0.6 1.2 0.6
v -0.6 1.2 0.5
v -0.5 1.1 -0.4
v -0.5 1.1 -0.6
v -0.5 1.2 -0.4
v -0.5 1.2 -0.6
v -0.4 1.1 -0.2
v -0.4 1.1 -0.4
v -0.4 1.2 -0.2
v -0.4 1.2 -0.4
v -0.3 1.2 -0.5
v -0.3 1.2 -0.6
v -0.3 1.3 -0.5
v -0.3 1.3 -0.6
v -0.2 1.2 -0.2
v -0.2 1.2 -0.4
v -0.2 1.2 -0.5
v -0.2 1.3 -0.2
v -0.2 1.3 -0.4
v -0.2 1.3 -0.5
v -0.2 1.3 -0.6
v -0.2 1.4 -0.4
v -0.2 1.4 -0.6
v -0.1 1.2 5.96046e-08
v -0.1 1.2 -0.2
v -0.1 1.3 5.96046e-08
v -0.1 1.3 -0.2
v -0.1 1.3 -0.3
v -0.1 1.3 -0.4
v -0.1 1.4 -0.3
v -0.1 1.4 -0.4
v -0.1 1.4 -0.5
v -0.1 1.4 -0.6
v -0.1 1.5 -0.5
v -0.1 1.5 -0.6
v -5.96046e-08 1.2 0.4
v -5.96046e-08 1.2 0.2
v -5.96046e-08 1.2 5.96046e-08
v -5.96046e-08 1.3 0.4
v -5.96046e-08 1.3 0.2
v -5.96046e-08 1.3 5.96046e-08
v -5.96046e-08 1.4 -0.4
v -5.96046e-08 1.4 -0.5
v -5.96046e-08 1.5 -0.4
v -5.96046e-08 1.5 -0.5
v 0.1 1.2 0.5
v 0.1 1.2 0.4
v 0.1 1.3 0.5
v 0.1 1.3 0.4
v 0.2 1.1 0.6
v 0.2 1.1 0.3
v 0.2 1.2 0.5
v 0.2 1.2 0.3
v 0.2 1.3 0.6
v 0.2 1.3 0.5
v 0.3 1.1 0.3
v 0.3 1.1 0.2
v 0.3 1.2 0.3
v 0.3 1.2 0.2
v 0.4 1.1 0.2
v 0.4 1.1 0.1
v 0.4 1.2 0.2
v 0.4 1.2 0.1
v 0.4 1.3 0.6
v 0.4 1.3 0.4
v 0.4 1.4 0.6
v 0.4 1.4 0.4
v 0.5 1.4 0.6
v 0.5 1.4 0.5
v 0.5 1.5 0.6
v 0.5 1.5 0.5
v 0.5 1.5 -0.5
v 0.5 1.5 -0.6
v 0.5 1.6 -0.5
v 0.5 1.6 -0.6
v -0.5 1.1 0.6
v -0.5 1.1 0.5
v -0.5 1.2 0.6
v -0.5 1.2 0.5
v -0.2 1.1 -0.2
v -0.2 1.1 -0.3
v -0.2 1.2 -0.2
v -0.2 1.2 -0.3
v 0.1 1.1 -0.3
v 0.1 1.1 -0.6
v 0.1 1.2 0.3
v 0.1 1.2 0.2
v 0.1 1.2 -0.2
v 0.1 1.2 -0.3
v 0.1 1.2 -0.4
v 0.1 1.2 -0.6
v 0.1 1.3 0.3
v 0.1 1.3 0.2
v 0.1 1.3 -0.2
v 0.1 1.3 -0.3
v 0.1 1.3 -0.4
v 0.1 1.3 -0.6
v 0.1 1.4 -0.3
v 0.1 1.4 -0.4
v 0.2 1.3 -0.4
v 0.2 1.3 -0.5
v 0.2 1.4 -0.4
v 0.2 1.4 -0.5
v 0.3 1.3 -0.5
v 0.3 1.3 -0.6
v 0.3 1.4 -0.5
v 0.3 1.4 -0.6
v 0.4 1.4 -0.4
v 0.4 1.4 -0.5
v 0.4 1.5 -0.4
v 0.4 1.5 -0.5
v 0.6 1 0.6
v 0.6 1 0.1
v 0.6 1 5.96046e-08
v 0.6 1 -0.3
v 0.6 1 -0.6
v 0.6 1.1 0.1
v 0.6 1.1 5.96046e-08
v 0.6 1.1 -0.3
v 0.6 1.1 -0.6
v 0.6 1.2 0.3
v 0.6 1.2 0.1
v 0.6 1.3 0.4
v 0.6 1.3 0.3
v 0.6 1.4 0.6
v 0.6 1.4 0.5
v 0.6 1.4 0.4
v 0.6 1.4 -0.5
v 0.6 1.4 -0.6
v 0.6 1.5 0.6
v 0.6 1.5 0.5
v 0.6 1.5 -0.5
v 0.6 1.5 -0.6
v 0.6 1.6 -0.5
v 0.6 1.6 -0.6
v -0.6 1 0.6
v -0.6 1.1 0.6
v -0.6 1.2 0.6
v -0.5 1 0.6
v -0.5 1.1 0.6
v -0.5 1.2 0.6
v 0.2 1 0.6
v 0.2 1.1 0.6
v 0.2 1.3 0.6
v 0.4 1.3 0.6
v 0.4 1.4 0.6
v 0.5 1.4 0.6
v 0.5 1.5 0.6
v 0.6 1 0.6
v 0.6 1.4 0.6
v 0.6 1.5 0.6
v 0.1 1.2 0.5
v 0.1 1.3 0.5
v 0.2 1.2 0.5
v 0.2 1.3 0.5
v -5.96046e-08 1.2 0.4
v -5.96046e-08 1.3 0.4
v 0.1 1.2 0.4
v 0.1 1.3 0.4
v -0.1 1.2 5.96046e-08
v -0.1 1.3 5.96046e-08
v -5.96046e-08 1.2 5.96046e-08
v -5.96046e-08 1.3 5.96046e-08
v -0.4 1.1 -0.2
v -0.4 1.2 -0.2
v -0.3 1.1 -0.2
v -0.2 1.1 -0.2
v -0.2 1.2 -0.2
v -0.2 1.3 -0.2
v -0.1 1.2 -0.2
v -0.1 1.3 -0.2
v -0.2 1.1 -0.3
v -0.2 1.2 -0.3
v -0.1 1.3 -0.3
v -0.1 1.4 -0.3
v 0.1 1.1 -0.3
v 0.1 1.2 -0.3
v 0.1 1.3 -0.3
v 0.1 1.4 -0.3
v -0.5 1.1 -0.4
v -0.5 1.2 -0.4
v -0.4 1.1 -0.4
v -0.4 1.2 -0.4
v -0.2 1.3 -0.4
v -0.2 1.4 -0.4
v -0.1 1.3 -0.4
v -0.1 1.4 -0.4
v -5.96046e-08 1.4 -0.4
v -5.96046e-08 1.5 -0.4
v 0.1 1.3 -0.4
v 0.1 1.4 -0.4
v 0.2 1.3 -0.4
v 0.2 1.4 -0.4
v 0.2 1.5 -0.4
v 0.4 1.4 -0.4
v 0.4 1.5 -0.4
v -0.3 1.2 -0.5
v -0.3 1.3 -0.5
v -0.2 1.2 -0.5
v -0.2 1.3 -0.5
v -0.1 1.4 -0.5
v -0.1 1.5 -0.5
v -5.96046e-08 1.4 -0.5
v -5.96046e-08 1.5 -0.5
v 0.2 1.3 -0.5
v 0.2 1.4 -0.5
v 0.3 1.3 -0.5
v 0.3 1.4 -0.5
v 0.4 1.4 -0.5
v 0.4 1.5 -0.5
v 0.5 1.5 -0.5
v 0.5 1.6 -0.5
v 0.6 1.4 -0.5
v 0.6 1.5 -0.5
v 0.6 1.6 -0.5
v -0.6 1.1 0.5
v -0.6 1.2 0.5
v -0.5 1.1 0.5
v -0.5 1.2 0.5
v 0.5 1.4 0.5
v 0.5 1.5 0.5
v 0.6 1.4 0.5
v 0.6 1.5 0.5
v 0.4 1.3 0.4
v 0.4 1.4 0.4
v 0.6 1.3 0.4
v 0.6 1.4 0.4
v 0.1 1.2 0.3
v 0.1 1.3 0.3
v 0.2 1.1 0.3
v 0.2 1.2 0.3
v 0.3 1.1 0.3
v 0.3 1.2 0.3
v 0.6 1.2 0.3
v 0.6 1.3 0.3
v 0.3 1.1 0.2
v 0.3 1.2 0.2
v 0.4 1.1 0.2
v 0.4 1.2 0.2
v 0.4 1.1 0.1
v 0.4 1.2 0.1
v 0.5 1.1 0.1
v 0.6 1.1 0.1
v 0.6 1.2 0.1
v -0.6 1 -0.6
v -0.6 1.1 -0.6
v -0.5 1.1 -0.6
v -0.5 1.2 -0.6
v -0.3 1.2 -0.6
v -0.3 1.3 -0.6
v -0.2 1.2 -0.6
v -0.2 1.3 -0.6
v -0.2 1.4 -0.6
v -0.1 1.4 -0.6
v -0.1 1.5 -0.6
v 0.1 1 -0.6
v 0.1 1.1 -0.6
v 0.1 1.2 -0.6
v 0.1 1.3 -0.6
v 0.3 1.3 -0.6
v 0.3 1.4 -0.6
v 0.3 1.5 -0.6
v 0.5 1.5 -0.6
v 0.5 1.6 -0.6
v 0.6 1 -0.6
v 0.6 1.1 -0.6
v 0.6 1.4 -0.6
v 0.6 1.5 -0.6
v 0.6 1.6 -0.6
v -0.6 1 0.6
v -0.5 1 0.6
v 0.2 1 0.6
v 0.6 1 0.6
v -0.5 1 0.4
v -0.4 1 0.4
v -0.6 1 0.2
v -0.4 1 0.2
v -0.3 1 0.2
v 0.2 1 0.2
v 0.3 1 0.2
v -0.6 1 0.1
v -0.5 1 0.1
v 0.5 1 0.1
v 0.6 1 0.1
v -0.6 1 5.96046e-08
v -0.5 1 5.96046e-08
v 0.5 1 5.96046e-08
v 0.6 1 5.96046e-08
v 0.3 1 -0.1
v 0.4 1 -0.1
v -0.3 1 -0.2
v -0.2 1 -0.2
v -0.2 1 -0.3
v 0.1 1 -0.3
v 0.4 1 -0.3
v 0.6 1 -0.3
v -0.6 1 -0.6
v 0.1 1 -0.6
v 0.6 1 -0.6
v 0.1 1.2 0.5
v 0.2 1.2 0.5
v -5.96046e-08 1.2 0.4
v 0.1 1.2 0.4
v 0.1 1.2 0.3
v 0.2 1.2 0.3
v -5.96046e-08 1.2 0.2
v 0.1 1.2 0.2
v -0.1 1.2 5.96046e-08
v -5.96046e-08 1.2 5.96046e-08
v -0.2 1.2 -0.2
v -0.1 1.2 -0.2
v 0.1 1.2 -0.2
v -0.2 1.2 -0.3
v 0.1 1.2 -0.3
v 0.1 1.3 -0.4
v 0.2 1.3 -0.4
v 0.2 1.3 -0.5
v 0.3 1.3 -0.5
v 0.1 1.3 -0.6
v 0.3 1.3 -0.6
v 0.2 1.4 -0.4
v 0.4 1.4 -0.4
v 0.2 1.4 -0.5
v 0.3 1.4 -0.5
v 0.4 1.4 -0.5
v 0.6 1.4 -0.5
v 0.3 1.4 -0.6
v 0.6 1.4 -0.6
v -0.5 1.1 0.6
v 0.2 1.1 0.6
v -0.6 1.1 0.5
v -0.5 1.1 0.5
v -0.5 1.1 0.4
v -0.4 1.1 0.4
v 0.2 1.1 0.3
v 0.3 1.1 0.3
v -0.6 1.1 0.2
v -0.4 1.1 0.2
v -0.3 1.1 0.2
v 0.2 1.1 0.2
v 0.3 1.1 0.2
v 0.4 1.1 0.2
v -0.6 1.1 0.1
v -0.5 1.1 0.1
v 0.4 1.1 0.1
v 0.5 1.1 0.1
v 0.6 1.1 0.1
v -0.6 1.1 5.96046e-08
v -0.5 1.1 5.96046e-08
v 0.5 1.1 5.96046e-08
v 0.6 1.1 5.96046e-08
v 0.3 1.1 -0.1
v 0.4 1.1 -0.1
v -0.4 1.1 -0.2
v -0.3 1.1 -0.2
v -0.2 1.1 -0.2
v -0.2 1.1 -0.3
v 0.1 1.1 -0.3
v 0.4 1.1 -0.3
v 0.6 1.1 -0.3
v -0.5 1.1 -0.4
v -0.4 1.1 -0.4
v -0.6 1.1 -0.6
v -0.5 1.1 -0.6
v 0.1 1.1 -0.6
v 0.6 1.1 -0.6
v -0.6 1.2 0.6
v -0.5 1.2 0.6
v -0.6 1.2 0.5
v -0.5 1.2 0.5
v 0.3 1.2 0.3
v 0.6 1.2 0.3
v 0.3 1.2 0.2
v 0.4 1.2 0.2
v 0.4 1.2 0.1
v 0.6 1.2 0.1
v -0.4 1.2 -0.2
v -0.2 1.2 -0.2
v -0.5 1.2 -0.4
v -0.4 1.2 -0.4
v -0.2 1.2 -0.4
v -0.3 1.2 -0.5
v -0.2 1.2 -0.5
v -0.5 1.2 -0.6
v -0.3 1.2 -0.6
v 0.2 1.3 0.6
v 0.4 1.3 0.6
v 0.1 1.3 0.5
v 0.2 1.3 0.5
v -5.96046e-08 1.3 0.4
v 0.1 1.3 0.4
v 0.4 1.3 0.4
v 0.6 1.3 0.4
v 0.1 1.3 0.3
v 0.6 1.3 0.3
v -5.96046e-08 1.3 0.2
v 0.1 1.3 0.2
v -0.1 1.3 5.96046e-08
v -5.96046e-08 1.3 5.96046e-08
v -0.2 1.3 -0.2
v -0.1 1.3 -0.2
v 0.1 1.3 -0.2
v -0.1 1.3 -0.3
v 0.1 1.3 -0.3
v -0.2 1.3 -0.4
v -0.1 1.3 -0.4
v -0.3 1.3 -0.5
v -0.2 1.3 -0.5
v -0.3 1.3 -0.6
v -0.2 1.3 -0.6
v 0.4 1.4 0.6
v 0.5 1.4 0.6
v 0.5 1.4 0.5
v 0.6 1.4 0.5
v 0.4 1.4 0.4
v 0.6 1.4 0.4
v -0.1 1.4 -0.3
v 0.1 1.4 -0.3
v -0.2 1.4 -0.4
v -0.1 1.4 -0.4
v -5.96046e-08 1.4 -0.4
v 0.1 1.4 -0.4
v -0.1 1.4 -0.5
v -5.96046e-08 1.4 -0.5
v -0.2 1.4 -0.6
v -0.1 1.4 -0.6
v 0.5 1.5 0.6
v 0.6 1.5 0.6
v 0.5 1.5 0.5
v 0.6 1.5 0.5
v -5.96046e-08 1.5 -0.4
v 0.2 1.5 -0.4
v 0.4 1.5 -0.4
v -0.1 1.5 -0.5
v -5.96046e-08 1.5 -0.5
v 0.2 1.5 -0.5
v 0.3 1.5 -0.5
v 0.4 1.5 -0.5
v 0.5 1.5 -0.5
v -0.1 1.5 -0.6
v 0.3 1.5 -0.6
v 0.5 1.5 -0.6
v 0.5 1.6 -0.5
v 0.6 1.6 -0.5
v 0.5 1.6 -0.6
v 0.6 1.6 -0.6

# faces
f 6/4/1 2/4/1 1/4/1
f 7/4/1 2/4/1 6/4/1
f 8/7/1 3/7/1 2/7/1
f 8/4/1 2/4/1 7/4/1
f 9/5/1 4/5/1 3/5/1
f 9/7/1 3/7/1 8/7/1
f 10/7/1 5/7/1 4/7/1
f 10/5/1 4/5/1 9/5/1
f 11/7/1 5/7/1 10/7/1
f 12/3/1 7/3/1 6/3/1
f 13/3/1 7/3/1 12/3/1
f 16/7/1 15/7/1 14/7/1
f 17/7/1 15/7/1 16/7/1
f 20/7/1 19/7/1 18/7/1
f 21/7/1 19/7/1 20/7/1
f 24/7/1 23/7/1 22/7/1
f 25/7/1 23/7/1 24/7/1
f 29/7/1 27/7/1 26/7/1
f 30/9/1 28/9/1 27/9/1
f 30/7/1 27/7/1 29/7/1
f 31/9/1 28/9/1 30/9/1
f 33/7/1 32/7/1 31/7/1
f 33/7/1 31/7/1 30/7/1
f 34/7/1 32/7/1 33/7/1
f 37/8/1 36/8/1 35/8/1
f 38/8/1 36/8/1 37/8/1
f 41/7/1 40/7/1 39/7/1
f 42/7/1 40/7/1 41/7/1
f 45/7/1 44/7/1 43/7/1
f 46/7/1 44/7/1 45/7/1
f 50/7/1 48/7/1 47/7/1
f 51/8/1 49/8/1 48/8/1
f 51/7/1 48/7/1 50/7/1
f 52/8/1 49/8/1 51/8/1
f 55/7/1 54/7/1 53/7/1
f 56/7/1 54/7/1 55/7/1
f 59/7/1 58/7/1 57/7/1
f 60/7/1 58/7/1 59/7/1
f 63/7/1 62/7/1 61/7/1
f 64/7/1 62/7/1 63/7/1
f 65/7/1 63/7/1 61/7/1
f 66/7/1 63/7/1 65/7/1
f 69/7/1 68/7/1 67/7/1
f 70/7/1 68/7/1 69/7/1
f 73/7/1 72/7/1 71/7/1
f 74/7/1 72/7/1 73/7/1
f 77/7/1 76/7/1 75/7/1
f 78/7/1 76/7/1 77/7/1
f 81/3/1 80/3/1 79/3/1
f 82/3/1 80/3/1 81/3/1
f 85/2/1 84/2/1 83/2/1
f 86/2/1 84/2/1 85/2/1
f 87/3/2 88/3/2 89/3/2
f 89/3/2 88/3/2 90/3/2
f 91/7/2 92/7/2 93/7/2
f 93/7/2 92/7/2 94/7/2
f 95/7/2 96/7/2 100/7/2
f 100/7/2 96/7/2 101/7/2
f 101/7/2 96/7/2 102/7/2
f 97/7/2 98/7/2 103/7/2
f 98/8/2 99/8/2 104/8/2
f 103/7/2 98/7/2 104/7/2
f 99/7/2 100/7/2 105/7/2
f 104/8/2 99/8/2 105/8/2
f 100/7/2 101/7/2 105/7/2
f 105/7/2 101/7/2 106/7/2
f 101/9/2 102/9/2 107/9/2
f 106/7/2 101/7/2 107/7/2
f 107/9/2 102/9/2 108/9/2
f 106/7/2 107/7/2 109/7/2
f 109/7/2 107/7/2 110/7/2
f 111/7/2 112/7/2 113/7/2
f 113/7/2 112/7/2 114/7/2
f 115/7/2 116/7/2 117/7/2
f 117/7/2 116/7/2 118/7/2
f 119/8/2 120/8/2 121/8/2
f 121/8/2 120/8/2 122/8/2
f 123/7/2 124/7/2 128/7/2
f 124/1/2 125/1/2 128/1/2
f 125/7/2 126/7/2 129/7/2
f 128/1/2 125/1/2 129/1/2
f 126/6/2 127/6/2 130/6/2
f 129/7/2 126/7/2 130/7/2
f 130/6/2 127/6/2 131/6/2
f 123/7/2 128/7/2 132/7/2
f 132/7/2 128/7/2 133/7/2
f 123/7/2 132/7/2 134/7/2
f 134/7/2 132/7/2 135/7/2
f 123/7/2 134/7/2 136/7/2
f 136/7/2 134/7/2 137/7/2
f 137/7/2 134/7/2 138/7/2
f 136/3/2 137/3/2 141/3/2
f 141/3/2 137/3/2 142/3/2
f 139/8/2 140/8/2 143/8/2
f 143/8/2 140/8/2 144/8/2
f 143/2/2 144/2/2 145/2/2
f 145/2/2 144/2/2 146/2/2
f 150/4/3 148/4/3 147/4/3
f 151/3/3 149/3/3 148/3/3
f 151/4/3 148/4/3 150/4/3
f 152/3/3 149/3/3 151/3/3
f 153/6/3 151/6/3 150/6/3
f 154/6/3 151/6/3 153/6/3
f 156/7/3 154/7/3 153/7/3
f 156/7/3 155/7/3 154/7/3
f 158/7/3 157/7/3 156/7/3
f 160/7/3 156/7/3 153/7/3
f 160/7/3 158/7/3 156/7/3
f 161/3/3 159/3/3 158/3/3
f 161/7/3 158/7/3 160/7/3
f 162/3/3 159/3/3 161/3/3
f 165/7/3 164/7/3 163/7/3
f 166/7/3 164/7/3 165/7/3
f 169/7/3 168/7/3 167/7/3
f 170/7/3 168/7/3 169/7/3
f 173/8/3 172/8/3 171/8/3
f 174/8/3 172/8/3 173/8/3
f 177/7/3 176/7/3 175/7/3
f 178/7/3 176/7/3 177/7/3
f 179/7/3 176/7/3 178/7/3
f 181/7/3 180/7/3 179/7/3
f 182/7/3 180/7/3 181/7/3
f 187/7/3 184/7/3 183/7/3
f 188/7/3 184/7/3 187/7/3
f 189/7/3 186/7/3 185/7/3
f 190/7/3 186/7/3 189/7/3
f 193/7/3 192/7/3 191/7/3
f 194/7/3 192/7/3 193/7/3
f 197/7/3 196/7/3 195/7/3
f 198/7/3 196/7/3 197/7/3
f 202/7/3 200/7/3 199/7/3
f 203/7/3 202/7/3 201/7/3
f 204/7/3 200/7/3 202/7/3
f 204/7/3 202/7/3 203/7/3
f 205/7/3 200/7/3 204/7/3
f 206/8/3 205/8/3 204/8/3
f 207/8/3 205/8/3 206/8/3
f 210/7/3 209/7/3 208/7/3
f 211/7/3 209/7/3 210/7/3
f 214/7/3 213/7/3 212/7/3
f 215/7/3 213/7/3 214/7/3
f 218/7/3 217/7/3 216/7/3
f 219/7/3 217/7/3 218/7/3
f 222/8/3 221/8/3 220/8/3
f 224/8/3 222/8/3 220/8/3
f 225/2/3 223/2/3 222/2/3
f 225/8/3 222/8/3 224/8/3
f 226/2/3 223/2/3 225/2/3
f 227/3/4 228/3/4 229/3/4
f 229/3/4 228/3/4 230/3/4
f 231/3/4 232/3/4 233/3/4
f 233/3/4 232/3/4 234/3/4
f 235/7/4 236/7/4 237/7/4
f 237/7/4 236/7/4 238/7/4
f 239/7/4 240/7/4 242/7/4
f 241/7/4 242/7/4 243/7/4
f 242/7/4 240/7/4 244/7/4
f 243/7/4 242/7/4 244/7/4
f 244/7/4 240/7/4 245/7/4
f 245/7/4 240/7/4 246/7/4
f 247/7/4 248/7/4 249/7/4
f 249/7/4 248/7/4 250/7/4
f 251/7/4 252/7/4 253/7/4
f 253/7/4 252/7/4 254/7/4
f 254/7/4 252/7/4 255/7/4
f 256/7/4 257/7/4 258/7/4
f 258/7/4 259/7/4 260/7/4
f 258/7/4 260/7/4 262/7/4
f 260/7/4 261/7/4 262/7/4
f 262/7/4 261/7/4 263/7/4
f 263/7/4 264/7/4 265/7/4
f 256/7/4 258/7/4 267/7/4
f 258/7/4 262/7/4 267/7/4
f 267/7/4 262/7/4 268/7/4
f 262/9/4 263/9/4 269/9/4
f 268/7/4 262/7/4 269/7/4
f 265/7/4 266/7/4 270/7/4
f 269/9/4 263/9/4 270/9/4
f 263/7/4 265/7/4 270/7/4
f 270/7/4 266/7/4 271/7/4
f 271/7/4 266/7/4 272/7/4
f 272/7/4 266/7/4 273/7/4
f 272/8/4 273/8/4 274/8/4
f 267/6/4 268/6/4 276/6/4
f 276/6/4 268/6/4 277/6/4
f 272/8/4 274/8/4 278/8/4
f 274/2/4 275/2/4 279/2/4
f 278/8/4 274/8/4 279/8/4
f 279/2/4 275/2/4 280/2/4
f 285/4/5 282/4/5 281/4/5
f 285/6/5 283/6/5 282/6/5
f 286/6/5 283/6/5 285/6/5
f 287/4/5 285/4/5 281/4/5
f 287/4/5 286/4/5 285/4/5
f 288/6/5 283/6/5 286/6/5
f 288/4/5 286/4/5 287/4/5
f 289/6/5 283/6/5 288/6/5
f 290/7/5 284/7/5 283/7/5
f 290/6/5 283/6/5 289/6/5
f 291/7/5 284/7/5 290/7/5
f 292/7/5 289/7/5 288/7/5
f 292/7/5 288/7/5 287/7/5
f 293/7/5 289/7/5 292/7/5
f 294/7/5 284/7/5 291/7/5
f 295/7/5 284/7/5 294/7/5
f 296/5/5 293/5/5 292/5/5
f 297/7/5 289/7/5 293/7/5
f 297/5/5 293/5/5 296/5/5
f 298/7/5 294/7/5 291/7/5
f 298/1/5 295/1/5 294/1/5
f 299/1/5 295/1/5 298/1/5
f 300/6/5 291/6/5 290/6/5
f 300/6/5 290/6/5 289/6/5
f 300/7/5 299/7/5 298/7/5
f 300/7/5 298/7/5 291/7/5
f 301/7/5 299/7/5 300/7/5
f 302/7/5 297/7/5 296/7/5
f 302/7/5 289/7/5 297/7/5
f 302/6/5 301/6/5 300/6/5
f 302/6/5 300/6/5 289/6/5
f 303/6/5 301/6/5 302/6/5
f 304/7/5 303/7/5 302/7/5
f 304/6/5 301/6/5 303/6/5
f 305/6/5 301/6/5 304/6/5
f 306/7/5 299/7/5 301/7/5
f 306/6/5 301/6/5 305/6/5
f 307/7/5 299/7/5 306/7/5
f 308/7/5 305/7/5 304/7/5
f 308/7/5 302/7/5 296/7/5
f 308/7/5 304/7/5 302/7/5
f 309/6/5 307/6/5 306/6/5
f 309/7/5 305/7/5 308/7/5
f 309/6/5 306/6/5 305/6/5
f 310/6/5 307/6/5 309/6/5
f 314/7/5 312/7/5 311/7/5
f 315/7/5 312/7/5 314/7/5
f 315/7/5 314/7/5 313/7/5
f 316/7/5 312/7/5 315/7/5
f 317/7/5 315/7/5 313/7/5
f 318/7/5 315/7/5 317/7/5
f 320/8/5 318/8/5 317/8/5
f 322/8/5 320/8/5 319/8/5
f 323/8/5 318/8/5 320/8/5
f 323/8/5 320/8/5 322/8/5
f 324/7/5 322/7/5 321/7/5
f 324/7/5 323/7/5 322/7/5
f 325/7/5 323/7/5 324/7/5
f 328/7/5 327/7/5 326/7/5
f 330/7/5 328/7/5 326/7/5
f 330/7/5 329/7/5 328/7/5
f 331/7/5 329/7/5 330/7/5
f 334/8/5 333/8/5 332/8/5
f 335/8/5 333/8/5 334/8/5
f 336/8/5 333/8/5 335/8/5
f 338/8/5 337/8/5 336/8/5
f 338/8/5 336/8/5 335/8/5
f 339/8/5 337/8/5 338/8/5
f 340/6/6 341/6/6 343/6/6
f 343/6/6 341/6/6 344/6/6
f 342/4/6 343/4/6 344/4/6
f 344/6/6 341/6/6 345/6/6
f 345/6/6 341/6/6 346/6/6
f 342/4/6 344/4/6 348/4/6
f 344/4/6 345/4/6 348/4/6
f 345/6/6 346/6/6 349/6/6
f 348/4/6 345/4/6 349/4/6
f 349/6/6 346/6/6 350/6/6
f 346/7/6 347/7/6 351/7/6
f 350/6/6 346/6/6 351/6/6
f 351/7/6 347/7/6 352/7/6
f 349/7/6 350/7/6 354/7/6
f 348/7/6 349/7/6 354/7/6
f 354/7/6 350/7/6 355/7/6
f 352/7/6 353/7/6 356/7/6
f 354/5/6 355/5/6 359/5/6
f 355/7/6 350/7/6 360/7/6
f 359/5/6 355/5/6 360/5/6
f 357/1/6 358/1/6 361/1/6
f 356/7/6 357/7/6 361/7/6
f 361/1/6 358/1/6 362/1/6
f 351/6/6 352/6/6 363/6/6
f 350/6/6 351/6/6 363/6/6
f 361/7/6 362/7/6 363/7/6
f 356/7/6 361/7/6 363/7/6
f 352/7/6 356/7/6 363/7/6
f 363/7/6 362/7/6 364/7/6
f 359/7/6 360/7/6 365/7/6
f 360/7/6 350/7/6 365/7/6
f 363/6/6 364/6/6 366/6/6
f 365/7/6 350/7/6 366/7/6
f 350/6/6 363/6/6 366/6/6
f 366/6/6 364/6/6 367/6/6
f 367/6/6 364/6/6 368/6/6
f 368/6/6 364/6/6 369/6/6
f 364/7/6 362/7/6 370/7/6
f 369/6/6 364/6/6 370/6/6
f 370/7/6 362/7/6 371/7/6
f 359/7/6 365/7/6 372/7/6
f 372/7/6 365/7/6 373/7/6
f 359/7/6 372/7/6 374/7/6
f 374/7/6 372/7/6 375/7/6
f 370/6/6 371/6/6 376/6/6
f 369/6/6 370/6/6 376/6/6
f 376/6/6 371/6/6 377/6/6
f 378/3/6 379/3/6 380/3/6
f 380/3/6 379/3/6 381/3/6
f 382/7/6 383/7/6 384/7/6
f 384/7/6 383/7/6 385/7/6
f 385/7/6 383/7/6 386/7/6
f 386/7/6 383/7/6 387/7/6
f 388/7/6 389/7/6 391/7/6
f 391/7/6 389/7/6 392/7/6
f 390/7/6 391/7/6 393/7/6
f 391/7/6 392/7/6 393/7/6
f 393/7/6 392/7/6 394/7/6
f 390/7/6 393/7/6 395/7/6
f 395/7/6 393/7/6 396/7/6
f 397/7/6 398/7/6 400/7/6
f 399/7/6 400/7/6 402/7/6
f 400/7/6 398/7/6 403/7/6
f 402/7/6 400/7/6 403/7/6
f 401/7/6 402/7/6 405/7/6
f 403/7/6 404/7/6 405/7/6
f 402/7/6 403/7/6 405/7/6
f 405/7/6 404/7/6 406/7/6
f 401/7/6 405/7/6 407/7/6
f 407/7/6 405/7/6 408/7/6
f 407/8/6 408/8/6 410/8/6
f 409/8/6 410/8/6 412/8/6
f 410/8/6 408/8/6 413/8/6
f 412/8/6 410/8/6 413/8/6
f 411/7/6 412/7/6 414/7/6
f 412/7/6 413/7/6 414/7/6
f 414/7/6 413/7/6 415/7/6
f 411/7/6 414/7/6 416/7/6
f 416/7/6 414/7/6 417/7/6
f 418/7/6 419/7/6 420/7/6
f 420/7/6 419/7/6 421/7/6
f 422/7/6 423/7/6 424/7/6
f 422/7/6 424/7/6 426/7/6
f 424/7/6 425/7/6 426/7/6
f 426/7/6 425/7/6 427/7/6
f 428/7/6 429/7/6 431/7/6
f 431/7/6 429/7/6 432/7/6
f 432/7/6 429/7/6 433/7/6
f 430/7/6 431/7/6 434/7/6
f 431/7/6 432/7/6 434/7/6
f 434/7/6 432/7/6 435/7/6
f 430/7/6 434/7/6 436/7/6
f 436/7/6 434/7/6 437/7/6
f 438/3/6 439/3/6 440/3/6
f 440/3/6 439/3/6 441/3/6
f 442/7/6 443/7/6 446/7/6
f 443/8/6 444/8/6 447/8/6
f 446/7/6 443/7/6 447/7/6
f 447/8/6 444/8/6 448/8/6
f 448/8/6 444/8/6 449/8/6
f 445/7/6 446/7/6 451/7/6
f 446/7/6 447/7/6 451/7/6
f 447/7/6 448/7/6 451/7/6
f 449/8/6 450/8/6 452/8/6
f 451/7/6 448/7/6 452/7/6
f 448/8/6 449/8/6 452/8/6
f 452/8/6 450/8/6 453/8/6
f 454/2/6 455/2/6 456/2/6
f 456/2/6 455/2/6 457/2/6
