# MagicaVoxel @ Ephtracy

# group
o 

# material
mtllib map_1.mtl
usemtl palette

# normals
vn -1 0 0
vn 1 0 0
vn 0 0 1
vn 0 0 -1
vn 0 -1 0
vn 0 1 0

# texcoords
vt 0.0644531 0.5
vt 0.427734 0.5
vt 0.482422 0.5
vt 0.583984 0.5
vt 0.755859 0.5
vt 0.916016 0.5
vt 0.958984 0.5

# verts
v -0.6 1 0.6
v -0.6 1 0.2
v -0.6 1 0.1
v -0.6 1 5.96046e-08
v -0.6 1 -0.6
v -0.6 1.1 0.6
v -0.6 1.1 0.5
v -0.6 1.1 0.2
v -0.6 1.1 0.1
v -0.6 1.1 5.96046e-08
v -0.6 1.1 -0.6
v -0.6 1.2 0.6
v -0.6 1.2 0.5
v -0.5 1.1 -0.4
v -0.5 1.1 -0.6
v -0.5 1.2 -0.4
v -0.5 1.2 -0.6
v -0.4 1.1 -0.2
v -0.4 1.1 -0.4
v -0.4 1.2 -0.2
v -0.4 1.2 -0.4
v -0.3 1.2 -0.5
v -0.3 1.2 -0.6
v -0.3 1.3 -0.5
v -0.3 1.3 -0.6
v -0.2 1.2 -0.2
v -0.2 1.2 -0.4
v -0.2 1.2 -0.5
v -0.2 1.3 -0.2
v -0.2 1.3 -0.4
v -0.2 1.3 -0.5
v -0.2 1.3 -0.6
v -0.2 1.4 -0.4
v -0.2 1.4 -0.6
v -0.1 1.3 -0.3
v -0.1 1.3 -0.4
v -0.1 1.4 -0.3
v -0.1 1.4 -0.4
v -0.1 1.4 -0.5
v -0.1 1.4 -0.6
v -0.1 1.5 -0.5
v -0.1 1.5 -0.6
v -5.96046e-08 1.2 0.4
v -5.96046e-08 1.2 0.2
v -5.96046e-08 1.3 0.4
v -5.96046e-08 1.3 0.2
v -5.96046e-08 1.4 -0.4
v -5.96046e-08 1.4 -0.5
v -5.96046e-08 1.5 -0.4
v -5.96046e-08 1.5 -0.5
v 0.1 1.2 0.5
v 0.1 1.2 0.4
v 0.1 1.3 0.5
v 0.1 1.3 0.4
v 0.2 1.1 0.6
v 0.2 1.1 0.3
v 0.2 1.2 0.5
v 0.2 1.2 0.3
v 0.2 1.3 0.6
v 0.2 1.3 0.5
v 0.3 1.1 0.3
v 0.3 1.1 0.2
v 0.3 1.2 0.3
v 0.3 1.2 0.2
v 0.4 1.1 0.2
v 0.4 1.1 0.1
v 0.4 1.2 0.2
v 0.4 1.2 0.1
v 0.4 1.3 0.6
v 0.4 1.3 0.4
v 0.4 1.4 0.6
v 0.4 1.4 0.4
v 0.5 1.4 0.6
v 0.5 1.4 0.5
v 0.5 1.5 0.6
v 0.5 1.5 0.5
v -0.5 1.1 0.6
v -0.5 1.1 0.5
v -0.5 1.2 0.6
v -0.5 1.2 0.5
v -0.2 1.1 -0.2
v -0.2 1.1 -0.3
v -0.2 1.2 -0.2
v -0.2 1.2 -0.3
v 0.1 1.1 -0.3
v 0.1 1.1 -0.6
v 0.1 1.2 0.3
v 0.1 1.2 0.2
v 0.1 1.2 -0.2
v 0.1 1.2 -0.3
v 0.1 1.2 -0.4
v 0.1 1.2 -0.6
v 0.1 1.3 0.3
v 0.1 1.3 0.2
v 0.1 1.3 -0.2
v 0.1 1.3 -0.3
v 0.1 1.3 -0.4
v 0.1 1.3 -0.6
v 0.1 1.4 -0.3
v 0.1 1.4 -0.4
v 0.2 1.3 -0.4
v 0.2 1.3 -0.5
v 0.2 1.5 -0.4
v 0.2 1.5 -0.5
v 0.3 1.3 -0.5
v 0.3 1.3 -0.6
v 0.3 1.5 -0.5
v 0.3 1.5 -0.6
v 0.6 1 0.6
v 0.6 1 0.1
v 0.6 1 5.96046e-08
v 0.6 1 -0.3
v 0.6 1 -0.6
v 0.6 1.1 0.1
v 0.6 1.1 5.96046e-08
v 0.6 1.1 -0.3
v 0.6 1.1 -0.6
v 0.6 1.2 0.3
v 0.6 1.2 0.1
v 0.6 1.3 0.4
v 0.6 1.3 0.3
v 0.6 1.4 0.6
v 0.6 1.4 0.5
v 0.6 1.4 0.4
v 0.6 1.5 0.6
v 0.6 1.5 0.5
v -0.6 1 0.6
v -0.6 1.1 0.6
v -0.6 1.2 0.6
v -0.5 1 0.6
v -0.5 1.1 0.6
v -0.5 1.2 0.6
v 0.2 1 0.6
v 0.2 1.1 0.6
v 0.2 1.3 0.6
v 0.4 1.3 0.6
v 0.4 1.4 0.6
v 0.5 1.4 0.6
v 0.5 1.5 0.6
v 0.6 1 0.6
v 0.6 1.4 0.6
v 0.6 1.5 0.6
v 0.1 1.2 0.5
v 0.1 1.3 0.5
v 0.2 1.2 0.5
v 0.2 1.3 0.5
v -5.96046e-08 1.2 0.4
v -5.96046e-08 1.3 0.4
v 0.1 1.2 0.4
v 0.1 1.3 0.4
v -0.4 1.1 -0.2
v -0.4 1.2 -0.2
v -0.3 1.1 -0.2
v -0.2 1.1 -0.2
v -0.2 1.2 -0.2
v -0.2 1.3 -0.2
v 0.1 1.2 -0.2
v 0.1 1.3 -0.2
v -0.2 1.1 -0.3
v -0.2 1.2 -0.3
v -0.1 1.3 -0.3
v -0.1 1.4 -0.3
v 0.1 1.1 -0.3
v 0.1 1.2 -0.3
v 0.1 1.3 -0.3
v 0.1 1.4 -0.3
v -0.5 1.1 -0.4
v -0.5 1.2 -0.4
v -0.4 1.1 -0.4
v -0.4 1.2 -0.4
v -0.2 1.3 -0.4
v -0.2 1.4 -0.4
v -0.1 1.3 -0.4
v -0.1 1.4 -0.4
v -5.96046e-08 1.4 -0.4
v -5.96046e-08 1.5 -0.4
v 0.1 1.3 -0.4
v 0.1 1.4 -0.4
v 0.2 1.3 -0.4
v 0.2 1.5 -0.4
v -0.3 1.2 -0.5
v -0.3 1.3 -0.5
v -0.2 1.2 -0.5
v -0.2 1.3 -0.5
v -0.1 1.4 -0.5
v -0.1 1.5 -0.5
v -5.96046e-08 1.4 -0.5
v -5.96046e-08 1.5 -0.5
v 0.2 1.3 -0.5
v 0.2 1.5 -0.5
v 0.3 1.3 -0.5
v 0.3 1.5 -0.5
v -0.6 1.1 0.5
v -0.6 1.2 0.5
v -0.5 1.1 0.5
v -0.5 1.2 0.5
v 0.5 1.4 0.5
v 0.5 1.5 0.5
v 0.6 1.4 0.5
v 0.6 1.5 0.5
v 0.4 1.3 0.4
v 0.4 1.4 0.4
v 0.6 1.3 0.4
v 0.6 1.4 0.4
v 0.1 1.2 0.3
v 0.1 1.3 0.3
v 0.2 1.1 0.3
v 0.2 1.2 0.3
v 0.3 1.1 0.3
v 0.3 1.2 0.3
v 0.6 1.2 0.3
v 0.6 1.3 0.3
v -5.96046e-08 1.2 0.2
v -5.96046e-08 1.3 0.2
v 0.1 1.2 0.2
v 0.1 1.3 0.2
v 0.3 1.1 0.2
v 0.3 1.2 0.2
v 0.4 1.1 0.2
v 0.4 1.2 0.2
v 0.4 1.1 0.1
v 0.4 1.2 0.1
v 0.5 1.1 0.1
v 0.6 1.1 0.1
v 0.6 1.2 0.1
v -0.6 1 -0.6
v -0.6 1.1 -0.6
v -0.5 1.1 -0.6
v -0.5 1.2 -0.6
v -0.3 1.2 -0.6
v -0.3 1.3 -0.6
v -0.2 1.2 -0.6
v -0.2 1.3 -0.6
v -0.2 1.4 -0.6
v -0.1 1.4 -0.6
v -0.1 1.5 -0.6
v 0.1 1 -0.6
v 0.1 1.1 -0.6
v 0.1 1.2 -0.6
v 0.1 1.3 -0.6
v 0.3 1.3 -0.6
v 0.3 1.5 -0.6
v 0.6 1 -0.6
v 0.6 1.1 -0.6
v -0.6 1 0.6
v -0.5 1 0.6
v 0.2 1 0.6
v 0.6 1 0.6
v -0.5 1 0.4
v -0.4 1 0.4
v -0.6 1 0.2
v -0.4 1 0.2
v -0.3 1 0.2
v 0.2 1 0.2
v 0.3 1 0.2
v -0.6 1 0.1
v -0.5 1 0.1
v 0.5 1 0.1
v 0.6 1 0.1
v -0.6 1 5.96046e-08
v -0.5 1 5.96046e-08
v 0.5 1 5.96046e-08
v 0.6 1 5.96046e-08
v 0.3 1 -0.1
v 0.4 1 -0.1
v -0.3 1 -0.2
v -0.2 1 -0.2
v -0.2 1 -0.3
v 0.1 1 -0.3
v 0.4 1 -0.3
v 0.6 1 -0.3
v -0.6 1 -0.6
v 0.1 1 -0.6
v 0.6 1 -0.6
v 0.1 1.2 0.5
v 0.2 1.2 0.5
v -5.96046e-08 1.2 0.4
v 0.1 1.2 0.4
v 0.1 1.2 0.3
v 0.2 1.2 0.3
v -5.96046e-08 1.2 0.2
v 0.1 1.2 0.2
v -0.2 1.2 -0.2
v 0.1 1.2 -0.2
v -0.2 1.2 -0.3
v 0.1 1.2 -0.3
v 0.1 1.3 -0.4
v 0.2 1.3 -0.4
v 0.2 1.3 -0.5
v 0.3 1.3 -0.5
v 0.1 1.3 -0.6
v 0.3 1.3 -0.6
v -0.5 1.1 0.6
v 0.2 1.1 0.6
v -0.6 1.1 0.5
v -0.5 1.1 0.5
v -0.5 1.1 0.4
v -0.4 1.1 0.4
v 0.2 1.1 0.3
v 0.3 1.1 0.3
v -0.6 1.1 0.2
v -0.4 1.1 0.2
v -0.3 1.1 0.2
v 0.2 1.1 0.2
v 0.3 1.1 0.2
v 0.4 1.1 0.2
v -0.6 1.1 0.1
v -0.5 1.1 0.1
v 0.4 1.1 0.1
v 0.5 1.1 0.1
v 0.6 1.1 0.1
v -0.6 1.1 5.96046e-08
v -0.5 1.1 5.96046e-08
v 0.5 1.1 5.96046e-08
v 0.6 1.1 5.96046e-08
v 0.3 1.1 -0.1
v 0.4 1.1 -0.1
v -0.4 1.1 -0.2
v -0.3 1.1 -0.2
v -0.2 1.1 -0.2
v -0.2 1.1 -0.3
v 0.1 1.1 -0.3
v 0.4 1.1 -0.3
v 0.6 1.1 -0.3
v -0.5 1.1 -0.4
v -0.4 1.1 -0.4
v -0.6 1.1 -0.6
v -0.5 1.1 -0.6
v 0.1 1.1 -0.6
v 0.6 1.1 -0.6
v -0.6 1.2 0.6
v -0.5 1.2 0.6
v -0.6 1.2 0.5
v -0.5 1.2 0.5
v 0.3 1.2 0.3
v 0.6 1.2 0.3
v 0.3 1.2 0.2
v 0.4 1.2 0.2
v 0.4 1.2 0.1
v 0.6 1.2 0.1
v -0.4 1.2 -0.2
v -0.2 1.2 -0.2
v -0.5 1.2 -0.4
v -0.4 1.2 -0.4
v -0.2 1.2 -0.4
v -0.3 1.2 -0.5
v -0.2 1.2 -0.5
v -0.5 1.2 -0.6
v -0.3 1.2 -0.6
v 0.2 1.3 0.6
v 0.4 1.3 0.6
v 0.1 1.3 0.5
v 0.2 1.3 0.5
v -5.96046e-08 1.3 0.4
v 0.1 1.3 0.4
v 0.4 1.3 0.4
v 0.6 1.3 0.4
v 0.1 1.3 0.3
v 0.6 1.3 0.3
v -5.96046e-08 1.3 0.2
v 0.1 1.3 0.2
v -0.2 1.3 -0.2
v 0.1 1.3 -0.2
v -0.1 1.3 -0.3
v 0.1 1.3 -0.3
v -0.2 1.3 -0.4
v -0.1 1.3 -0.4
v -0.3 1.3 -0.5
v -0.2 1.3 -0.5
v -0.3 1.3 -0.6
v -0.2 1.3 -0.6
v 0.4 1.4 0.6
v 0.5 1.4 0.6
v 0.5 1.4 0.5
v 0.6 1.4 0.5
v 0.4 1.4 0.4
v 0.6 1.4 0.4
v -0.1 1.4 -0.3
v 0.1 1.4 -0.3
v -0.2 1.4 -0.4
v -0.1 1.4 -0.4
v -5.96046e-08 1.4 -0.4
v 0.1 1.4 -0.4
v -0.1 1.4 -0.5
v -5.96046e-08 1.4 -0.5
v -0.2 1.4 -0.6
v -0.1 1.4 -0.6
v 0.5 1.5 0.6
v 0.6 1.5 0.6
v 0.5 1.5 0.5
v 0.6 1.5 0.5
v -5.96046e-08 1.5 -0.4
v 0.2 1.5 -0.4
v -0.1 1.5 -0.5
v -5.96046e-08 1.5 -0.5
v 0.2 1.5 -0.5
v 0.3 1.5 -0.5
v -0.1 1.5 -0.6
v 0.3 1.5 -0.6

# faces
f 6/3/1 2/3/1 1/3/1
f 7/3/1 2/3/1 6/3/1
f 8/6/1 3/6/1 2/6/1
f 8/3/1 2/3/1 7/3/1
f 9/4/1 4/4/1 3/4/1
f 9/6/1 3/6/1 8/6/1
f 10/6/1 5/6/1 4/6/1
f 10/4/1 4/4/1 9/4/1
f 11/6/1 5/6/1 10/6/1
f 12/2/1 7/2/1 6/2/1
f 13/2/1 7/2/1 12/2/1
f 16/6/1 15/6/1 14/6/1
f 17/6/1 15/6/1 16/6/1
f 20/6/1 19/6/1 18/6/1
f 21/6/1 19/6/1 20/6/1
f 24/6/1 23/6/1 22/6/1
f 25/6/1 23/6/1 24/6/1
f 29/6/1 27/6/1 26/6/1
f 30/7/1 28/7/1 27/7/1
f 30/6/1 27/6/1 29/6/1
f 31/7/1 28/7/1 30/7/1
f 33/6/1 32/6/1 31/6/1
f 33/6/1 31/6/1 30/6/1
f 34/6/1 32/6/1 33/6/1
f 37/6/1 36/6/1 35/6/1
f 38/6/1 36/6/1 37/6/1
f 41/6/1 40/6/1 39/6/1
f 42/6/1 40/6/1 41/6/1
f 45/6/1 44/6/1 43/6/1
f 46/6/1 44/6/1 45/6/1
f 49/6/1 48/6/1 47/6/1
f 50/6/1 48/6/1 49/6/1
f 53/6/1 52/6/1 51/6/1
f 54/6/1 52/6/1 53/6/1
f 57/6/1 56/6/1 55/6/1
f 58/6/1 56/6/1 57/6/1
f 59/6/1 57/6/1 55/6/1
f 60/6/1 57/6/1 59/6/1
f 63/6/1 62/6/1 61/6/1
f 64/6/1 62/6/1 63/6/1
f 67/6/1 66/6/1 65/6/1
f 68/6/1 66/6/1 67/6/1
f 71/6/1 70/6/1 69/6/1
f 72/6/1 70/6/1 71/6/1
f 75/2/1 74/2/1 73/2/1
f 76/2/1 74/2/1 75/2/1
f 77/2/2 78/2/2 79/2/2
f 79/2/2 78/2/2 80/2/2
f 81/6/2 82/6/2 83/6/2
f 83/6/2 82/6/2 84/6/2
f 85/6/2 86/6/2 90/6/2
f 90/6/2 86/6/2 91/6/2
f 91/6/2 86/6/2 92/6/2
f 87/6/2 88/6/2 93/6/2
f 93/6/2 88/6/2 94/6/2
f 89/6/2 90/6/2 95/6/2
f 90/6/2 91/6/2 95/6/2
f 95/6/2 91/6/2 96/6/2
f 91/7/2 92/7/2 97/7/2
f 96/6/2 91/6/2 97/6/2
f 97/7/2 92/7/2 98/7/2
f 96/6/2 97/6/2 99/6/2
f 99/6/2 97/6/2 100/6/2
f 101/6/2 102/6/2 103/6/2
f 103/6/2 102/6/2 104/6/2
f 105/6/2 106/6/2 107/6/2
f 107/6/2 106/6/2 108/6/2
f 109/6/2 110/6/2 114/6/2
f 110/1/2 111/1/2 114/1/2
f 111/6/2 112/6/2 115/6/2
f 114/1/2 111/1/2 115/1/2
f 112/5/2 113/5/2 116/5/2
f 115/6/2 112/6/2 116/6/2
f 116/5/2 113/5/2 117/5/2
f 109/6/2 114/6/2 118/6/2
f 118/6/2 114/6/2 119/6/2
f 109/6/2 118/6/2 120/6/2
f 120/6/2 118/6/2 121/6/2
f 109/6/2 120/6/2 122/6/2
f 122/6/2 120/6/2 123/6/2
f 123/6/2 120/6/2 124/6/2
f 122/2/2 123/2/2 125/2/2
f 125/2/2 123/2/2 126/2/2
f 130/3/3 128/3/3 127/3/3
f 131/2/3 129/2/3 128/2/3
f 131/3/3 128/3/3 130/3/3
f 132/2/3 129/2/3 131/2/3
f 133/5/3 131/5/3 130/5/3
f 134/5/3 131/5/3 133/5/3
f 136/6/3 134/6/3 133/6/3
f 136/6/3 135/6/3 134/6/3
f 138/6/3 137/6/3 136/6/3
f 140/6/3 136/6/3 133/6/3
f 140/6/3 138/6/3 136/6/3
f 141/2/3 139/2/3 138/2/3
f 141/6/3 138/6/3 140/6/3
f 142/2/3 139/2/3 141/2/3
f 145/6/3 144/6/3 143/6/3
f 146/6/3 144/6/3 145/6/3
f 149/6/3 148/6/3 147/6/3
f 150/6/3 148/6/3 149/6/3
f 153/6/3 152/6/3 151/6/3
f 154/6/3 152/6/3 153/6/3
f 155/6/3 152/6/3 154/6/3
f 157/6/3 156/6/3 155/6/3
f 158/6/3 156/6/3 157/6/3
f 163/6/3 160/6/3 159/6/3
f 164/6/3 160/6/3 163/6/3
f 165/6/3 162/6/3 161/6/3
f 166/6/3 162/6/3 165/6/3
f 169/6/3 168/6/3 167/6/3
f 170/6/3 168/6/3 169/6/3
f 173/6/3 172/6/3 171/6/3
f 174/6/3 172/6/3 173/6/3
f 178/6/3 176/6/3 175/6/3
f 179/6/3 178/6/3 177/6/3
f 180/6/3 176/6/3 178/6/3
f 180/6/3 178/6/3 179/6/3
f 183/6/3 182/6/3 181/6/3
f 184/6/3 182/6/3 183/6/3
f 187/6/3 186/6/3 185/6/3
f 188/6/3 186/6/3 187/6/3
f 191/6/3 190/6/3 189/6/3
f 192/6/3 190/6/3 191/6/3
f 193/2/4 194/2/4 195/2/4
f 195/2/4 194/2/4 196/2/4
f 197/2/4 198/2/4 199/2/4
f 199/2/4 198/2/4 200/2/4
f 201/6/4 202/6/4 203/6/4
f 203/6/4 202/6/4 204/6/4
f 205/6/4 206/6/4 208/6/4
f 207/6/4 208/6/4 209/6/4
f 208/6/4 206/6/4 210/6/4
f 209/6/4 208/6/4 210/6/4
f 210/6/4 206/6/4 211/6/4
f 211/6/4 206/6/4 212/6/4
f 213/6/4 214/6/4 215/6/4
f 215/6/4 214/6/4 216/6/4
f 217/6/4 218/6/4 219/6/4
f 219/6/4 218/6/4 220/6/4
f 221/6/4 222/6/4 223/6/4
f 223/6/4 222/6/4 224/6/4
f 224/6/4 222/6/4 225/6/4
f 226/6/4 227/6/4 228/6/4
f 228/6/4 229/6/4 230/6/4
f 228/6/4 230/6/4 232/6/4
f 230/6/4 231/6/4 232/6/4
f 232/6/4 231/6/4 233/6/4
f 233/6/4 234/6/4 235/6/4
f 226/6/4 228/6/4 237/6/4
f 228/6/4 232/6/4 237/6/4
f 237/6/4 232/6/4 238/6/4
f 232/7/4 233/7/4 239/7/4
f 238/6/4 232/6/4 239/6/4
f 235/6/4 236/6/4 240/6/4
f 239/7/4 233/7/4 240/7/4
f 233/6/4 235/6/4 240/6/4
f 240/6/4 236/6/4 241/6/4
f 241/6/4 236/6/4 242/6/4
f 237/5/4 238/5/4 243/5/4
f 243/5/4 238/5/4 244/5/4
f 249/3/5 246/3/5 245/3/5
f 249/5/5 247/5/5 246/5/5
f 250/5/5 247/5/5 249/5/5
f 251/3/5 249/3/5 245/3/5
f 251/3/5 250/3/5 249/3/5
f 252/5/5 247/5/5 250/5/5
f 252/3/5 250/3/5 251/3/5
f 253/5/5 247/5/5 252/5/5
f 254/6/5 248/6/5 247/6/5
f 254/5/5 247/5/5 253/5/5
f 255/6/5 248/6/5 254/6/5
f 256/6/5 253/6/5 252/6/5
f 256/6/5 252/6/5 251/6/5
f 257/6/5 253/6/5 256/6/5
f 258/6/5 248/6/5 255/6/5
f 259/6/5 248/6/5 258/6/5
f 260/4/5 257/4/5 256/4/5
f 261/6/5 253/6/5 257/6/5
f 261/4/5 257/4/5 260/4/5
f 262/6/5 258/6/5 255/6/5
f 262/1/5 259/1/5 258/1/5
f 263/1/5 259/1/5 262/1/5
f 264/5/5 255/5/5 254/5/5
f 264/5/5 254/5/5 253/5/5
f 264/6/5 263/6/5 262/6/5
f 264/6/5 262/6/5 255/6/5
f 265/6/5 263/6/5 264/6/5
f 266/6/5 261/6/5 260/6/5
f 266/6/5 253/6/5 261/6/5
f 266/5/5 265/5/5 264/5/5
f 266/5/5 264/5/5 253/5/5
f 267/5/5 265/5/5 266/5/5
f 268/6/5 267/6/5 266/6/5
f 268/5/5 265/5/5 267/5/5
f 269/5/5 265/5/5 268/5/5
f 270/6/5 263/6/5 265/6/5
f 270/5/5 265/5/5 269/5/5
f 271/6/5 263/6/5 270/6/5
f 272/6/5 269/6/5 268/6/5
f 272/6/5 266/6/5 260/6/5
f 272/6/5 268/6/5 266/6/5
f 273/5/5 271/5/5 270/5/5
f 273/6/5 269/6/5 272/6/5
f 273/5/5 270/5/5 269/5/5
f 274/5/5 271/5/5 273/5/5
f 278/6/5 276/6/5 275/6/5
f 279/6/5 276/6/5 278/6/5
f 279/6/5 278/6/5 277/6/5
f 280/6/5 276/6/5 279/6/5
f 281/6/5 279/6/5 277/6/5
f 282/6/5 279/6/5 281/6/5
f 285/6/5 284/6/5 283/6/5
f 286/6/5 284/6/5 285/6/5
f 289/6/5 288/6/5 287/6/5
f 291/6/5 289/6/5 287/6/5
f 291/6/5 290/6/5 289/6/5
f 292/6/5 290/6/5 291/6/5
f 293/5/6 294/5/6 296/5/6
f 296/5/6 294/5/6 297/5/6
f 295/3/6 296/3/6 297/3/6
f 297/5/6 294/5/6 298/5/6
f 298/5/6 294/5/6 299/5/6
f 295/3/6 297/3/6 301/3/6
f 297/3/6 298/3/6 301/3/6
f 298/5/6 299/5/6 302/5/6
f 301/3/6 298/3/6 302/3/6
f 302/5/6 299/5/6 303/5/6
f 299/6/6 300/6/6 304/6/6
f 303/5/6 299/5/6 304/5/6
f 304/6/6 300/6/6 305/6/6
f 302/6/6 303/6/6 307/6/6
f 301/6/6 302/6/6 307/6/6
f 307/6/6 303/6/6 308/6/6
f 305/6/6 306/6/6 309/6/6
f 307/4/6 308/4/6 312/4/6
f 308/6/6 303/6/6 313/6/6
f 312/4/6 308/4/6 313/4/6
f 310/1/6 311/1/6 314/1/6
f 309/6/6 310/6/6 314/6/6
f 314/1/6 311/1/6 315/1/6
f 304/5/6 305/5/6 316/5/6
f 303/5/6 304/5/6 316/5/6
f 314/6/6 315/6/6 316/6/6
f 309/6/6 314/6/6 316/6/6
f 305/6/6 309/6/6 316/6/6
f 316/6/6 315/6/6 317/6/6
f 312/6/6 313/6/6 318/6/6
f 313/6/6 303/6/6 318/6/6
f 316/5/6 317/5/6 319/5/6
f 318/6/6 303/6/6 319/6/6
f 303/5/6 316/5/6 319/5/6
f 319/5/6 317/5/6 320/5/6
f 320/5/6 317/5/6 321/5/6
f 321/5/6 317/5/6 322/5/6
f 317/6/6 315/6/6 323/6/6
f 322/5/6 317/5/6 323/5/6
f 323/6/6 315/6/6 324/6/6
f 312/6/6 318/6/6 325/6/6
f 325/6/6 318/6/6 326/6/6
f 312/6/6 325/6/6 327/6/6
f 327/6/6 325/6/6 328/6/6
f 323/5/6 324/5/6 329/5/6
f 322/5/6 323/5/6 329/5/6
f 329/5/6 324/5/6 330/5/6
f 331/2/6 332/2/6 333/2/6
f 333/2/6 332/2/6 334/2/6
f 335/6/6 336/6/6 337/6/6
f 337/6/6 336/6/6 338/6/6
f 338/6/6 336/6/6 339/6/6
f 339/6/6 336/6/6 340/6/6
f 341/6/6 342/6/6 344/6/6
f 344/6/6 342/6/6 345/6/6
f 343/6/6 344/6/6 346/6/6
f 344/6/6 345/6/6 346/6/6
f 346/6/6 345/6/6 347/6/6
f 343/6/6 346/6/6 348/6/6
f 348/6/6 346/6/6 349/6/6
f 350/6/6 351/6/6 353/6/6
f 352/6/6 353/6/6 355/6/6
f 353/6/6 351/6/6 356/6/6
f 355/6/6 353/6/6 356/6/6
f 354/6/6 355/6/6 358/6/6
f 356/6/6 357/6/6 358/6/6
f 355/6/6 356/6/6 358/6/6
f 358/6/6 357/6/6 359/6/6
f 354/6/6 358/6/6 360/6/6
f 360/6/6 358/6/6 361/6/6
f 362/6/6 363/6/6 364/6/6
f 364/6/6 363/6/6 365/6/6
f 362/6/6 364/6/6 366/6/6
f 366/6/6 364/6/6 367/6/6
f 368/6/6 369/6/6 370/6/6
f 370/6/6 369/6/6 371/6/6
f 372/6/6 373/6/6 374/6/6
f 372/6/6 374/6/6 376/6/6
f 374/6/6 375/6/6 376/6/6
f 376/6/6 375/6/6 377/6/6
f 378/6/6 379/6/6 381/6/6
f 381/6/6 379/6/6 382/6/6
f 382/6/6 379/6/6 383/6/6
f 380/6/6 381/6/6 384/6/6
f 381/6/6 382/6/6 384/6/6
f 384/6/6 382/6/6 385/6/6
f 380/6/6 384/6/6 386/6/6
f 386/6/6 384/6/6 387/6/6
f 388/2/6 389/2/6 390/2/6
f 390/2/6 389/2/6 391/2/6
f 392/6/6 393/6/6 395/6/6
f 395/6/6 393/6/6 396/6/6
f 394/6/6 395/6/6 398/6/6
f 396/6/6 397/6/6 398/6/6
f 395/6/6 396/6/6 398/6/6
f 398/6/6 397/6/6 399/6/6
